<?xml version="1.0" encoding="utf-8"?>
<!-- Generator: Adobe Illustrator 22.0.1, SVG Export Plug-In . SVG Version: 6.00 Build 0)  -->
<svg version="1.1" xmlns="http://www.w3.org/2000/svg" xmlns:xlink="http://www.w3.org/1999/xlink" x="0px" y="0px"
	 viewBox="0 0 900 768" style="enable-background:new 0 0 900 768;" xml:space="preserve">
<style type="text/css">
	.st0{display:none;}
	.st1{opacity:0.8;fill:#00BAFF;}
	.st2{opacity:0.8;}
	.st3{fill:#69B9D9;}
	.st4{opacity:0.95;fill:#36499C;}
	.st5{fill:#8CDCFA;}
	.st6{font-family:'Raleway-Light';}
	.st7{font-size:53.4477px;}
	.st8{font-family:'Raleway-Medium';}
</style>
<g id="Layer_1" class="st0">
</g>
<g id="rounded_x2A__triangles">
	<path id="rounded_top_left_2_" class="st1" d="M230,190l156-82c0,0,11-8,14,6s26,247,26,247L230,204C230,204,218,196,230,190z"/>
	<g id="rounded_bottom_left_1_" class="st2">
		<path class="st3" d="M94,294.4c0,0-17.5-1.9-9.7,14.8c7.7,16.8,177.4,389,177.4,389s6.5,12.2,11.9,0C279,686,461,302,461,302
			s1-11.3-8-7.7L94,294.4z"/>
	</g>
	<g id="rounded_top_right">
		<path class="st4" d="M410,353l254-1c0,0,13.7-0.6,8.4-10.8C667,331,526.8,67,526.8,67s-7.2-7-10.5,0C513,74,402,339,402,339
			S394,353,410,353z"/>
	</g>
	<g id="rounded_bottom_left" class="st2">
		<path class="st5" d="M461.1,501.1l88-55.4c0,0,6.1-2.7,0-7.7C543,433,426,334.8,426,334.8s-6-2.8-4.5,3.2s33,160.5,33,160.5
			S455.2,505.3,461.1,501.1z"/>
	</g>
</g>
<g id="text">
	<text transform="matrix(1 0 0 1 374.0879 603.9648)"><tspan x="0" y="0" class="st6 st7">THERMO</tspan><tspan x="226.3" y="0" class="st8 st7">SECURE</tspan></text>
</g>
</svg>
