<?xml version="1.0" encoding="utf-8"?>
<!-- Generator: Adobe Illustrator 22.0.1, SVG Export Plug-In . SVG Version: 6.00 Build 0)  -->
<svg version="1.1" id="logo" xmlns="http://www.w3.org/2000/svg" xmlns:xlink="http://www.w3.org/1999/xlink" x="0px" y="0px"
	 viewBox="0 0 1103 183.9" style="enable-background:new 0 0 1103 183.9;" xml:space="preserve">
<style type="text/css">
	.st0{fill:#A3A3A3;}
	.st1{fill:#001487;}
</style>
<g id="LOGAN">
</g>
<g id="LITMAN">
</g>
<g id="DOTS">
</g>
<g id="name_type">
	<g id="LOGAN_LITMAN_2_">
		<path class="st0" d="M53.6,103.4v-62h-7.2v62C48.8,103.4,51.2,103.4,53.6,103.4z"/>
		<path class="st0" d="M67.5,131c-1.7,0.4-18,0.1-19.4,0.1c-0.2,0-0.8,0-1.7,0v6.1H113V131H67.5z"/>
		<path class="st0" d="M161.3,137.9c-6.9,0-13.2-1.4-18.9-4.2c-5.7-2.8-10.6-6.4-14.7-10.9c-4.1-4.5-7.3-9.7-9.5-15.5
			c-2.2-5.8-3.4-11.8-3.4-18c0-6.4,1.2-12.5,3.6-18.4c2.4-5.9,5.7-11,9.8-15.5c4.2-4.5,9.1-8.1,14.8-10.7c5.7-2.7,11.9-4,18.5-4
			c6.9,0,13.3,1.4,19,4.3c5.7,2.8,10.7,6.5,14.7,11.1c4.1,4.6,7.2,9.8,9.5,15.6s3.4,11.7,3.4,17.6c0,6.5-1.2,12.6-3.6,18.5
			c-2.4,5.9-5.7,11-9.8,15.5c-4.2,4.5-9.1,8-14.8,10.7C174.1,136.6,167.9,137.9,161.3,137.9z M121.9,89.3c0,5.5,1,10.8,2.9,15.9
			c1.9,5.1,4.6,9.6,8.1,13.5c3.5,3.9,7.7,7,12.6,9.4c4.9,2.3,10.2,3.5,16,3.5c6,0,11.4-1.2,16.2-3.6c4.8-2.4,8.9-5.6,12.3-9.7
			c3.4-4,6.1-8.5,7.9-13.6c1.9-5,2.8-10.2,2.8-15.4c0-5.5-1-10.8-2.9-15.9c-2-5.1-4.7-9.6-8.2-13.5c-3.5-3.9-7.6-7-12.4-9.4
			c-4.8-2.3-10-3.5-15.7-3.5c-6,0-11.4,1.2-16.3,3.6c-4.9,2.4-9,5.6-12.5,9.7c-3.5,4-6.1,8.5-8,13.6C122.8,79,121.9,84.1,121.9,89.3
			z"/>
		<path class="st0" d="M300.5,122.2c-9.6,10.4-20.8,15.7-33.5,15.7c-6.7,0-13-1.4-18.7-4.2c-5.7-2.8-10.7-6.5-14.8-11.1
			c-4.1-4.6-7.3-9.8-9.7-15.7c-2.3-5.8-3.5-11.8-3.5-17.8c0-6.3,1.1-12.4,3.4-18.2c2.3-5.9,5.5-11,9.5-15.5
			c4.1-4.5,8.9-8.1,14.5-10.7c5.6-2.7,11.7-4,18.4-4c5,0,9.4,0.5,13.4,1.6c4,1,7.5,2.5,10.7,4.3c3.1,1.8,5.8,4,8.1,6.6
			c2.3,2.6,4.2,5.4,5.8,8.4l-5.9,3.4c-3.4-6.3-7.8-10.9-13.4-13.7c-5.6-2.8-11.9-4.3-18.9-4.3c-5.9,0-11.2,1.2-16,3.6
			c-4.8,2.4-8.8,5.6-12.2,9.6c-3.4,4-5.9,8.5-7.7,13.5c-1.8,5-2.7,10.2-2.7,15.5c0,5.7,1,11,3.1,16.1c2.1,5.1,4.9,9.6,8.5,13.4
			c3.6,3.9,7.8,7,12.7,9.2c4.9,2.3,10.1,3.4,15.7,3.4c6.1,0,11.8-1.3,17.3-4c5.5-2.7,10.7-7,15.8-12.8V96.2H278v-5.5h28.7v46.6h-6.2
			V122.2z"/>
		<path class="st0" d="M365.2,41.4H359l-42.4,95.8h7.7l6.9-15.6c1.2-2.9,2.3-5.8,3.5-8.7c1.7-4.3,3.5-8.6,5.2-12.8c0,0.1,0,0,0-0.1
			h-0.1l0.5-1.1c0.6-1.5,1.5-3.8,1.8-4l19.9-45.1l21.6,50c0.6,1.2,1.7,4.3,1.9,4.8c1.6,3.9,3.2,7.9,4.9,11.9l9.1,20.8h7.6
			L365.2,41.4z"/>
		<path class="st0" d="M429.5,54.4v82.9h-7.2V41.4h5.5l69.8,84.4V41.4h7.2v95.8h-6.6L429.5,54.4z"/>
		<path class="st0" d="M574,104.2V41.4h-7.2v62.9C569,104.3,571.4,104.2,574,104.2z"/>
		<path class="st0" d="M589.9,131c-4.3,0.2-16.9,0-18.1,0c-0.4,0-2.4,0-5,0v6.3h66.6V131H589.9z"/>
		<path class="st0" d="M648.3,137.2V41.4h7.2v95.8H648.3z"/>
		<path class="st0" d="M707.5,79.6v57.6h7.2V79.6C712.2,79.6,709.8,79.6,707.5,79.6z"/>
		<path class="st0" d="M671,41.4v6.2h23.8c7.5-0.1,22.6-0.1,30.3,0h26.1v-6.2H671z"/>
		<path class="st0" d="M856.7,137.2V54.4L817.4,119h-4.5l-39.3-64.7v82.9h-7.2V41.4h7.2l41.5,68.6l41.5-68.6h7.2v95.8H856.7z"/>
		<path class="st0" d="M927.4,41.4h-6.2l-42.4,95.8h7.7l6.2-14.1c1.3-3.3,2.6-6.6,3.9-9.9c1.7-4.3,3.5-8.6,5.2-12.8
			c-0.2,0.6,1.9-5.2,2.3-5.3c0,0,0,0,0,0l20-45.4L944.7,97c0.5,0.5,1.9,4.6,2.2,5.2c1.8,4.3,3.5,8.5,5.2,12.8c0.2,0.5,0.4,1,0.6,1.5
			l9.1,20.8h7.6L927.4,41.4z"/>
		<path class="st0" d="M991.7,54.4v82.9h-7.2V41.4h5.5l69.8,84.4V41.4h7.2v95.8h-6.6L991.7,54.4z"/>
	</g>
	<g id="dots">
		<rect id="O" x="156.5" y="86.2" class="st1" width="8.4" height="8.4"/>
		<rect id="A1" x="358" y="86.2" class="st1" width="8.4" height="8.4"/>
		<rect id="A2" x="920.4" y="86.2" class="st1" width="8.4" height="8.4"/>
		<rect id="L1" x="46" y="114.2" class="st1" width="8.4" height="8.4"/>
		<rect id="L1_1_" x="566.5" y="114.2" class="st1" width="8.4" height="8.4"/>
		<rect id="L1_2_" x="706.4" y="58.2" class="st1" width="8.4" height="8.4"/>
	</g>
</g>
</svg>
